HIERARCHY
ROOT mixamorig:Hips
{
	OFFSET -0.000008 104.274872 1.554316
	CHANNELS 6 Xposition Yposition Zposition Xrotation Yrotation Zrotation
	JOINT mixamorig:Spine
	{
		OFFSET -0.000005 10.181595 0.131519
		CHANNELS 6 Xposition Yposition Zposition Xrotation Yrotation Zrotation
		JOINT mixamorig:Spine1
		{
			OFFSET -0.000000 9.893959 -1.470707
			CHANNELS 6 Xposition Yposition Zposition Xrotation Yrotation Zrotation
			JOINT mixamorig:Spine2
			{
				OFFSET -0.000000 9.220757 -1.370641
				CHANNELS 6 Xposition Yposition Zposition Xrotation Yrotation Zrotation
				JOINT mixamorig:Neck
				{
					OFFSET 0.000001 16.740417 -2.049036
					CHANNELS 6 Xposition Yposition Zposition Xrotation Yrotation Zrotation
					JOINT mixamorig:Head
					{
						OFFSET 0.000000 9.617874 1.685006
						CHANNELS 6 Xposition Yposition Zposition Xrotation Yrotation Zrotation
						JOINT mixamorig:HeadTop_End
						{
							OFFSET 0.000002 22.037354 7.501101
							CHANNELS 6 Xposition Yposition Zposition Xrotation Yrotation Zrotation
							End Site
							{
								OFFSET 0.000168 2310.654297 -282.823242
							}
						}
					}
				}
				JOINT mixamorig:RightShoulder
				{
					OFFSET -4.569970 11.014908 -2.160885
					CHANNELS 6 Xposition Yposition Zposition Xrotation Yrotation Zrotation
					JOINT mixamorig:RightArm
					{
						OFFSET -10.592851 -0.524811 -2.232101
						CHANNELS 6 Xposition Yposition Zposition Xrotation Yrotation Zrotation
						JOINT mixamorig:RightForeArm
						{
							OFFSET -27.841511 0.000031 -0.000004
							CHANNELS 6 Xposition Yposition Zposition Xrotation Yrotation Zrotation
							JOINT mixamorig:RightHand
							{
								OFFSET -28.328831 -0.000015 0.000015
								CHANNELS 6 Xposition Yposition Zposition Xrotation Yrotation Zrotation
								JOINT mixamorig:RightHandThumb1
								{
									OFFSET -2.464806 -1.573990 2.681852
									CHANNELS 6 Xposition Yposition Zposition Xrotation Yrotation Zrotation
									JOINT mixamorig:RightHandThumb2
									{
										OFFSET -3.215179 -1.872803 1.924282
										CHANNELS 6 Xposition Yposition Zposition Xrotation Yrotation Zrotation
										JOINT mixamorig:RightHandThumb3
										{
											OFFSET -2.654831 -1.527969 1.512609
											CHANNELS 6 Xposition Yposition Zposition Xrotation Yrotation Zrotation
											JOINT mixamorig:RightHandThumb4
											{
												OFFSET -2.018814 -1.152008 1.108052
												CHANNELS 6 Xposition Yposition Zposition Xrotation Yrotation Zrotation
												End Site
												{
													OFFSET -188.809540 -114.533607 132.431396
												}
											}
										}
									}
								}
								JOINT mixamorig:RightHandIndex1
								{
									OFFSET -9.108284 -0.517868 2.259835
									CHANNELS 6 Xposition Yposition Zposition Xrotation Yrotation Zrotation
									JOINT mixamorig:RightHandIndex2
									{
										OFFSET -3.699989 0.000000 0.001215
										CHANNELS 6 Xposition Yposition Zposition Xrotation Yrotation Zrotation
										JOINT mixamorig:RightHandIndex3
										{
											OFFSET -2.850006 0.000031 -0.000522
											CHANNELS 6 Xposition Yposition Zposition Xrotation Yrotation Zrotation
											JOINT mixamorig:RightHandIndex4
											{
												OFFSET -2.772186 -0.000015 -0.000020
												CHANNELS 6 Xposition Yposition Zposition Xrotation Yrotation Zrotation
												End Site
												{
													OFFSET -277.218445 0.000000 -0.050231
												}
											}
										}
									}
								}
								JOINT mixamorig:RightHandMiddle1
								{
									OFFSET -9.532516 -0.000031 -0.000023
									CHANNELS 6 Xposition Yposition Zposition Xrotation Yrotation Zrotation
									JOINT mixamorig:RightHandMiddle2
									{
										OFFSET -3.700005 -0.000015 0.003713
										CHANNELS 6 Xposition Yposition Zposition Xrotation Yrotation Zrotation
										JOINT mixamorig:RightHandMiddle3
										{
											OFFSET -2.949974 0.000015 -0.002054
											CHANNELS 6 Xposition Yposition Zposition Xrotation Yrotation Zrotation
											JOINT mixamorig:RightHandMiddle4
											{
												OFFSET -2.946640 0.000000 -0.000156
												CHANNELS 6 Xposition Yposition Zposition Xrotation Yrotation Zrotation
												End Site
												{
													OFFSET -294.664337 0.000000 -0.113670
												}
											}
										}
									}
								}
								JOINT mixamorig:RightHandRing1
								{
									OFFSET -9.103600 -0.043076 -1.865134
									CHANNELS 6 Xposition Yposition Zposition Xrotation Yrotation Zrotation
									JOINT mixamorig:RightHandRing2
									{
										OFFSET -3.379288 0.000000 -0.001055
										CHANNELS 6 Xposition Yposition Zposition Xrotation Yrotation Zrotation
										JOINT mixamorig:RightHandRing3
										{
											OFFSET -2.889687 -0.000015 0.000379
											CHANNELS 6 Xposition Yposition Zposition Xrotation Yrotation Zrotation
											JOINT mixamorig:RightHandRing4
											{
												OFFSET -2.638809 -0.000015 0.000941
												CHANNELS 6 Xposition Yposition Zposition Xrotation Yrotation Zrotation
												End Site
												{
													OFFSET -263.880371 0.000000 0.516020
												}
											}
										}
									}
								}
								JOINT mixamorig:RightHandPinky1
								{
									OFFSET -8.076683 -0.486710 -3.806280
									CHANNELS 6 Xposition Yposition Zposition Xrotation Yrotation Zrotation
									JOINT mixamorig:RightHandPinky2
									{
										OFFSET -3.600014 -0.000015 -0.003747
										CHANNELS 6 Xposition Yposition Zposition Xrotation Yrotation Zrotation
										JOINT mixamorig:RightHandPinky3
										{
											OFFSET -2.099983 0.000000 -0.005739
											CHANNELS 6 Xposition Yposition Zposition Xrotation Yrotation Zrotation
											JOINT mixamorig:RightHandPinky4
											{
												OFFSET -2.115768 -0.000031 -0.003680
												CHANNELS 6 Xposition Yposition Zposition Xrotation Yrotation Zrotation
												End Site
												{
													OFFSET -211.577087 0.000000 -0.350686
												}
											}
										}
									}
								}
							}
						}
					}
				}
				JOINT mixamorig:LeftShoulder
				{
					OFFSET 4.570447 11.014725 -2.160855
					CHANNELS 6 Xposition Yposition Zposition Xrotation Yrotation Zrotation
					JOINT mixamorig:LeftArm
					{
						OFFSET 10.592371 -0.524597 -2.232119
						CHANNELS 6 Xposition Yposition Zposition Xrotation Yrotation Zrotation
						JOINT mixamorig:LeftForeArm
						{
							OFFSET 27.841532 -0.000031 0.000026
							CHANNELS 6 Xposition Yposition Zposition Xrotation Yrotation Zrotation
							JOINT mixamorig:LeftHand
							{
								OFFSET 28.328846 -0.000061 0.000022
								CHANNELS 6 Xposition Yposition Zposition Xrotation Yrotation Zrotation
								JOINT mixamorig:LeftHandThumb1
								{
									OFFSET 2.466141 -1.576172 2.681732
									CHANNELS 6 Xposition Yposition Zposition Xrotation Yrotation Zrotation
									JOINT mixamorig:LeftHandThumb2
									{
										OFFSET 3.217812 -1.872070 1.916482
										CHANNELS 6 Xposition Yposition Zposition Xrotation Yrotation Zrotation
										JOINT mixamorig:LeftHandThumb3
										{
											OFFSET 2.656029 -1.528778 1.514513
											CHANNELS 6 Xposition Yposition Zposition Xrotation Yrotation Zrotation
											JOINT mixamorig:LeftHandThumb4
											{
												OFFSET 2.020889 -1.154053 1.115139
												CHANNELS 6 Xposition Yposition Zposition Xrotation Yrotation Zrotation
												End Site
												{
													OFFSET 190.885437 -115.081749 130.048782
												}
											}
										}
									}
								}
								JOINT mixamorig:LeftHandIndex1
								{
									OFFSET 9.109314 -0.518021 2.259871
									CHANNELS 6 Xposition Yposition Zposition Xrotation Yrotation Zrotation
									JOINT mixamorig:LeftHandIndex2
									{
										OFFSET 3.699989 0.000000 -0.000322
										CHANNELS 6 Xposition Yposition Zposition Xrotation Yrotation Zrotation
										JOINT mixamorig:LeftHandIndex3
										{
											OFFSET 2.850006 0.000000 0.000352
											CHANNELS 6 Xposition Yposition Zposition Xrotation Yrotation Zrotation
											JOINT mixamorig:LeftHandIndex4
											{
												OFFSET 2.774864 -0.000031 -0.000027
												CHANNELS 6 Xposition Yposition Zposition Xrotation Yrotation Zrotation
												End Site
												{
													OFFSET 277.486267 0.000000 -0.009857
												}
											}
										}
									}
								}
								JOINT mixamorig:LeftHandMiddle1
								{
									OFFSET 9.533394 0.000061 0.000044
									CHANNELS 6 Xposition Yposition Zposition Xrotation Yrotation Zrotation
									JOINT mixamorig:LeftHandMiddle2
									{
										OFFSET 3.699989 -0.000015 -0.000231
										CHANNELS 6 Xposition Yposition Zposition Xrotation Yrotation Zrotation
										JOINT mixamorig:LeftHandMiddle3
										{
											OFFSET 2.949997 -0.000015 -0.000059
											CHANNELS 6 Xposition Yposition Zposition Xrotation Yrotation Zrotation
											JOINT mixamorig:LeftHandMiddle4
											{
												OFFSET 2.952896 0.000031 0.000063
												CHANNELS 6 Xposition Yposition Zposition Xrotation Yrotation Zrotation
												End Site
												{
													OFFSET 295.289337 0.000000 0.022810
												}
											}
										}
									}
								}
								JOINT mixamorig:LeftHandRing1
								{
									OFFSET 9.104523 -0.042999 -1.865074
									CHANNELS 6 Xposition Yposition Zposition Xrotation Yrotation Zrotation
									JOINT mixamorig:LeftHandRing2
									{
										OFFSET 3.150009 -0.000031 0.000043
										CHANNELS 6 Xposition Yposition Zposition Xrotation Yrotation Zrotation
										JOINT mixamorig:LeftHandRing3
										{
											OFFSET 2.949982 -0.000015 0.000040
											CHANNELS 6 Xposition Yposition Zposition Xrotation Yrotation Zrotation
											JOINT mixamorig:LeftHandRing4
											{
												OFFSET 2.644348 0.000000 0.000057
												CHANNELS 6 Xposition Yposition Zposition Xrotation Yrotation Zrotation
												End Site
												{
													OFFSET 264.434631 0.000000 0.012105
												}
											}
										}
									}
								}
								JOINT mixamorig:LeftHandPinky1
								{
									OFFSET 8.077789 -0.486847 -3.806259
									CHANNELS 6 Xposition Yposition Zposition Xrotation Yrotation Zrotation
									JOINT mixamorig:LeftHandPinky2
									{
										OFFSET 3.599953 0.000031 0.014727
										CHANNELS 6 Xposition Yposition Zposition Xrotation Yrotation Zrotation
										JOINT mixamorig:LeftHandPinky3
										{
											OFFSET 2.100021 0.000015 0.007705
											CHANNELS 6 Xposition Yposition Zposition Xrotation Yrotation Zrotation
											JOINT mixamorig:LeftHandPinky4
											{
												OFFSET 2.125504 0.000031 0.007517
												CHANNELS 6 Xposition Yposition Zposition Xrotation Yrotation Zrotation
												End Site
												{
													OFFSET 212.550781 0.000000 0.625752
												}
											}
										}
									}
								}
							}
						}
					}
				}
			}
		}
	}
	JOINT mixamorig:RightUpLeg
	{
		OFFSET -8.207787 -6.751648 -1.599560
		CHANNELS 6 Xposition Yposition Zposition Xrotation Yrotation Zrotation
		JOINT mixamorig:RightLeg
		{
			OFFSET -0.000002 -44.370117 0.345942
			CHANNELS 6 Xposition Yposition Zposition Xrotation Yrotation Zrotation
			JOINT mixamorig:RightFoot
			{
				OFFSET 0.000003 -44.423679 -3.043532
				CHANNELS 6 Xposition Yposition Zposition Xrotation Yrotation Zrotation
				JOINT mixamorig:RightToeBase
				{
					OFFSET -0.000002 -8.728671 10.710558
					CHANNELS 6 Xposition Yposition Zposition Xrotation Yrotation Zrotation
					JOINT mixamorig:RightToe_End
					{
						OFFSET -0.000001 -0.000679 9.278119
						CHANNELS 6 Xposition Yposition Zposition Xrotation Yrotation Zrotation
						End Site
						{
							OFFSET 0.000000 -0.067690 927.812134
						}
					}
				}
			}
		}
	}
	JOINT mixamorig:LeftUpLeg
	{
		OFFSET 8.207793 -6.751686 -1.599556
		CHANNELS 6 Xposition Yposition Zposition Xrotation Yrotation Zrotation
		JOINT mixamorig:LeftLeg
		{
			OFFSET -0.000004 -44.370014 0.346954
			CHANNELS 6 Xposition Yposition Zposition Xrotation Yrotation Zrotation
			JOINT mixamorig:LeftFoot
			{
				OFFSET -0.000001 -44.423672 -3.044401
				CHANNELS 6 Xposition Yposition Zposition Xrotation Yrotation Zrotation
				JOINT mixamorig:LeftToeBase
				{
					OFFSET -0.000002 -8.728669 10.710558
					CHANNELS 6 Xposition Yposition Zposition Xrotation Yrotation Zrotation
					JOINT mixamorig:LeftToe_End
					{
						OFFSET -0.000003 -0.000679 9.278133
						CHANNELS 6 Xposition Yposition Zposition Xrotation Yrotation Zrotation
						End Site
						{
							OFFSET 0.000000 -0.068021 927.813477
						}
					}
				}
			}
		}
	}
}
MOTION
Frames: 3
Frame Time: 0.033333
0.000006 104.270477 1.554256 0.000010 0.000003 -0.000113 -0.000005 10.181587 0.131522 0.000001 -0.000003 0.000084 -0.000000 9.893967 -1.470711 0.000001 0.000000 -0.000000 -0.000000 9.220802 -1.370642 0.000000 -0.000000 -0.000000 0.000001 16.740433 -2.049030 0.000000 -0.000000 -0.000000 0.000000 9.617859 1.685014 0.000000 0.000000 0.000000 0.000002 22.037384 7.501101 0.000000 -0.000000 0.000000 -4.569968 11.014880 -2.160881 0.000008 0.000001 -0.000038 -10.592880 -0.524739 -2.231928 74.583234 23.983842 -18.377529 -27.841522 0.000022 0.000538 -53.069900 110.564589 71.558089 -28.328844 0.000005 0.000028 -0.000322 -0.000045 0.000007 -2.464406 -1.573880 2.682359 -37.882613 -152.407502 10.425899 -3.215239 -1.872511 1.924613 147.307482 33.499776 29.238445 -2.654962 -1.527884 1.513064 148.895569 27.367130 -29.638844 -2.018838 -1.152002 1.108060 0.000001 -0.000002 0.000004 -9.108393 -0.517569 2.260177 107.494050 16.221465 -22.058885 -3.700080 0.000299 0.001554 103.193811 15.750292 -19.766094 -2.850113 0.000353 -0.000232 102.914422 12.674955 -15.871920 -2.772171 -0.000016 -0.000020 -0.000000 0.000001 0.000000 -9.532593 0.000259 0.000290 106.935716 14.655354 -19.883522 -3.700092 0.000315 0.004045 106.293521 13.916884 -18.368161 -2.950074 0.000333 -0.001758 106.293740 11.532704 -15.336606 -2.946617 0.000015 -0.000156 0.000001 0.000001 0.000000 -9.103703 -0.042770 -1.864799 105.466829 16.722127 -21.807486 -3.379351 0.000289 -0.000750 107.868795 11.998486 -16.446385 -2.889781 0.000333 0.000710 111.265257 8.095638 -11.883381 -2.638816 -0.000016 0.000943 0.000000 -0.000003 -0.000000 -8.076772 -0.486409 -3.805988 92.094487 19.250072 -19.793986 -3.600055 0.000281 -0.003455 99.687055 9.807521 -11.184560 -2.100014 0.000326 -0.005435 103.413743 4.742011 -5.729415 -2.115774 -0.000030 -0.003681 0.000001 -0.000001 -0.000004 4.570446 11.014691 -2.160851 -0.000018 0.000010 -0.000021 10.592380 -0.524498 -2.232332 72.744370 -3.895158 2.869436 27.841814 0.000059 -0.000185 93.068998 -70.875350 73.800850 28.328848 -0.000029 0.000026 0.000019 -0.000089 -0.000000 2.466255 -1.576061 2.681839 -170.354876 15.858408 81.596493 3.217800 -1.871759 1.916386 165.184587 -30.772943 5.162293 2.656099 -1.528653 1.514464 143.194752 -26.627289 50.630123 2.020884 -1.154079 1.115154 0.000002 0.000005 0.000002 9.109375 -0.517875 2.259715 81.658914 -18.468294 15.981917 3.700031 0.000147 -0.000455 79.128500 -16.662772 13.812582 2.850062 0.000155 0.000225 76.406676 -13.811080 10.888538 2.774885 -0.000031 -0.000029 0.000001 0.000002 -0.000002 9.533471 0.000188 -0.000082 81.039600 -18.190291 15.574216 3.700052 0.000161 -0.000356 83.701250 -16.346367 14.658433 2.950080 0.000132 -0.000182 79.772621 -19.851250 16.642850 2.952863 -0.000033 0.000064 0.000001 0.000001 0.000001 9.104604 -0.042870 -1.865216 77.369425 -16.210503 13.012626 3.150062 0.000190 -0.000092 84.999088 -14.662681 13.449118 2.950019 0.000142 -0.000057 83.502457 -16.644459 14.879267 2.644319 0.000026 0.000056 -0.000000 -0.000001 -0.000000 8.077854 -0.486759 -3.806396 67.287130 -17.306694 11.971780 3.599983 0.000148 0.014582 65.755406 -14.469855 9.724408 2.100046 0.000140 0.007569 68.448925 -14.388055 10.158787 2.125506 -0.000033 0.007511 -0.000001 0.000002 -0.000001 -8.207786 -6.751667 -1.599560 -0.077001 -0.000003 0.000080 -0.000002 -44.370110 0.345938 0.153719 -0.000000 -0.000000 0.000000 -44.423679 -3.043532 -0.076700 0.000000 -0.000002 -0.000006 -8.728667 10.710559 -0.000009 -0.000000 -0.000000 -0.000001 -0.000679 9.278123 0.000000 -0.000000 -0.000000 8.207792 -6.751710 -1.599556 -0.074518 -0.000003 0.000081 -0.000002 -44.370014 0.346960 0.148822 0.000002 0.000000 -0.000001 -44.423664 -3.044403 -0.074314 0.000000 -0.000002 -0.000004 -8.728671 10.710558 0.000007 -0.000000 -0.000000 0.000000 -0.000680 9.278137 -0.000000 0.000000 -0.000001 
0.000006 104.270477 1.554256 0.000010 0.000003 -0.000113 -0.000005 10.181587 0.131522 0.000001 -0.000003 0.000084 -0.000000 9.893967 -1.470711 0.000001 0.000000 -0.000000 -0.000000 9.220802 -1.370642 0.000000 -0.000000 -0.000000 0.000001 16.740433 -2.049030 0.000000 -0.000000 -0.000000 0.000000 9.617859 1.685014 0.000000 0.000000 0.000000 0.000002 22.037384 7.501101 0.000000 -0.000000 0.000000 -4.569968 11.014880 -2.160881 0.000008 0.000001 -0.000038 -10.592878 -0.524748 -2.231924 74.578549 25.419647 -19.490812 -27.841515 0.000011 0.000544 -52.352348 109.201058 69.341911 -28.328842 0.000020 0.000020 -0.000318 -0.000044 0.000006 -2.464410 -1.573766 2.682299 -49.551424 -160.120111 -14.202039 -3.215199 -1.872475 1.924601 141.375791 32.557415 43.140438 -2.654982 -1.527828 1.513048 148.650174 28.422166 -19.863484 -2.018827 -1.152000 1.108060 -0.000002 -0.000002 0.000005 -9.108381 -0.517547 2.260147 106.616548 14.901115 -19.969685 -3.700050 0.000305 0.001543 103.796308 13.486659 -17.119695 -2.850078 0.000371 -0.000205 104.773210 11.358723 -14.708406 -2.772179 -0.000000 -0.000023 -0.000000 -0.000000 0.000000 -9.532598 0.000274 0.000291 104.776926 14.524956 -18.966062 -3.700088 0.000314 0.004036 106.629806 13.357458 -17.737089 -2.950068 0.000342 -0.001730 108.945629 11.607371 -16.193627 -2.946632 0.000001 -0.000153 0.000000 0.000001 -0.000000 -9.103716 -0.042758 -1.864826 104.731054 17.825513 -22.934986 -3.379352 0.000305 -0.000733 107.739247 11.945376 -16.335827 -2.889749 0.000329 0.000737 112.747545 8.011878 -12.091995 -2.638809 -0.000004 0.000938 0.000001 -0.000002 0.000003 -8.076780 -0.486403 -3.805981 94.630871 22.052548 -23.690704 -3.600036 0.000276 -0.003461 99.371514 10.877834 -12.374831 -2.100031 0.000304 -0.005425 103.472564 5.001530 -6.063088 -2.115769 -0.000026 -0.003681 -0.000001 0.000000 0.000000 4.570446 11.014691 -2.160851 -0.000018 0.000010 -0.000021 10.592372 -0.524502 -2.232311 72.940396 0.048921 -0.036076 27.841822 0.000054 -0.000178 94.479760 -71.979136 76.291615 28.328840 -0.000029 0.000019 0.000019 -0.000089 -0.000000 2.466257 -1.575900 2.681800 -163.232314 -5.875848 48.706253 3.217882 -1.871831 1.916421 170.742203 -19.208821 43.298478 2.656110 -1.528671 1.514506 142.491816 -25.808997 65.675561 2.020890 -1.154090 1.115153 0.000004 0.000000 0.000006 9.109383 -0.517885 2.259756 79.889929 -22.129562 18.590388 3.700034 0.000131 -0.000459 77.172429 -13.850271 11.084392 2.850034 0.000160 0.000193 76.225430 -9.998641 7.850184 2.774889 -0.000011 -0.000025 -0.000003 0.000002 0.000002 9.533457 0.000173 -0.000074 78.057465 -20.181807 16.410103 3.700031 0.000162 -0.000389 82.074442 -10.058715 8.758553 2.950054 0.000175 -0.000207 82.767932 -10.255503 9.044264 2.952862 -0.000016 0.000064 -0.000001 -0.000000 0.000002 9.104591 -0.042883 -1.865227 77.434066 -19.709278 15.857075 3.150068 0.000175 -0.000104 83.217741 -11.549373 10.266153 2.950018 0.000174 -0.000090 83.551163 -9.680484 8.653623 2.644332 0.000014 0.000061 -0.000000 -0.000004 0.000000 8.077830 -0.486762 -3.806386 67.740341 -20.224663 14.074524 3.599998 0.000129 0.014568 68.190867 -15.961662 11.206404 2.100032 0.000154 0.007557 70.460245 -12.138644 8.934629 2.125507 -0.000031 0.007519 0.000003 -0.000000 -0.000001 -8.207786 -6.751667 -1.599560 -0.077001 -0.000003 0.000080 -0.000002 -44.370110 0.345938 0.153719 -0.000000 -0.000000 0.000000 -44.423679 -3.043532 -0.076700 0.000000 -0.000002 -0.000006 -8.728667 10.710559 -0.000009 -0.000000 -0.000000 -0.000001 -0.000679 9.278123 0.000000 -0.000000 -0.000000 8.207792 -6.751710 -1.599556 -0.074518 -0.000003 0.000081 -0.000002 -44.370014 0.346960 0.148822 0.000002 0.000000 -0.000001 -44.423664 -3.044403 -0.074314 0.000000 -0.000002 -0.000004 -8.728671 10.710558 0.000007 -0.000000 -0.000000 0.000000 -0.000680 9.278137 -0.000000 0.000000 -0.000001 
0.000006 104.270477 1.554256 0.000010 0.000003 -0.000113 -0.000005 10.181587 0.131522 0.000001 -0.000003 0.000084 -0.000000 9.893967 -1.470711 0.000001 0.000000 -0.000000 -0.000000 9.220802 -1.370642 0.000000 -0.000000 -0.000000 0.000001 16.740433 -2.049030 0.000000 -0.000000 -0.000000 0.000000 9.617859 1.685014 0.000000 0.000000 0.000000 0.000002 22.037384 7.501101 0.000000 -0.000000 0.000000 -4.569968 11.014880 -2.160881 0.000008 0.000001 -0.000038 -10.592871 -0.524786 -2.231876 74.636223 36.721812 -28.396308 -27.841516 0.000026 0.000544 -50.858589 105.741082 64.257737 -28.328802 0.000022 0.000028 -0.000321 -0.000044 0.000009 -2.464398 -1.573781 2.682303 -50.121052 -161.793507 -15.659609 -3.215241 -1.872500 1.924618 146.245210 33.073238 28.486375 -2.654956 -1.527849 1.513050 147.779025 27.991044 -24.851179 -2.018823 -1.152017 1.108058 -0.000003 -0.000004 0.000004 -9.108347 -0.517532 2.260148 106.236243 14.380161 -19.148748 -3.700063 0.000323 0.001538 103.430422 12.816063 -16.166568 -2.850083 0.000374 -0.000221 102.918479 10.676502 -13.379235 -2.772163 -0.000015 -0.000019 -0.000000 0.000001 -0.000000 -9.532564 0.000272 0.000286 104.233488 13.564872 -17.560654 -3.700074 0.000329 0.004020 105.519319 12.039099 -15.671213 -2.950053 0.000340 -0.001750 106.258052 11.129091 -14.792742 -2.946641 0.000000 -0.000155 -0.000001 -0.000001 0.000000 -9.103675 -0.042747 -1.864814 104.261738 15.380833 -19.646498 -3.379321 0.000329 -0.000744 106.081860 9.891193 -13.143824 -2.889756 0.000337 0.000709 109.460379 7.654228 -10.871709 -2.638803 -0.000001 0.000939 -0.000001 -0.000002 0.000001 -8.076736 -0.486389 -3.805986 92.674705 19.623743 -20.381547 -3.600036 0.000289 -0.003466 98.199194 9.563645 -10.616714 -2.100021 0.000330 -0.005433 100.773164 4.769747 -5.499586 -2.115775 -0.000027 -0.003684 -0.000001 0.000001 -0.000004 4.570446 11.014691 -2.160851 -0.000018 0.000010 -0.000021 10.592406 -0.524477 -2.232357 72.670310 -15.432527 11.382552 27.841810 0.000064 -0.000201 95.367718 -74.204842 79.436958 28.328838 -0.000028 0.000021 0.000024 -0.000088 -0.000000 2.466265 -1.575953 2.681796 -163.729470 -2.353334 53.716559 3.217868 -1.871829 1.916433 169.591125 -19.568075 43.219590 2.656117 -1.528685 1.514497 141.471987 -26.393844 63.727454 2.020887 -1.154058 1.115150 0.000003 0.000001 0.000004 9.109385 -0.517891 2.259740 79.731646 -21.828508 18.284999 3.700042 0.000132 -0.000476 76.548532 -13.468079 10.658666 2.850069 0.000167 0.000208 75.649434 -9.744851 7.571884 2.774878 -0.000015 -0.000029 -0.000001 0.000002 0.000001 9.533477 0.000173 -0.000081 78.286167 -20.058432 16.374801 3.700035 0.000167 -0.000372 81.376882 -10.173294 8.750584 2.950046 0.000176 -0.000206 82.088512 -10.088574 8.791537 2.952873 -0.000015 0.000059 0.000000 -0.000003 0.000000 9.104578 -0.042881 -1.865219 77.828421 -19.339988 15.666612 3.150057 0.000187 -0.000102 82.239111 -11.537025 10.081010 2.949999 0.000173 -0.000103 82.521956 -9.564715 8.397270 2.644326 0.000015 0.000056 0.000000 0.000001 -0.000000 8.077835 -0.486758 -3.806380 67.915030 -19.985289 13.955335 3.600004 0.000137 0.014566 68.643606 -15.859552 11.230287 2.100032 0.000154 0.007540 71.254016 -12.029835 8.986888 2.125505 -0.000027 0.007512 -0.000003 0.000002 -0.000001 -8.207786 -6.751667 -1.599560 -0.077001 -0.000003 0.000080 -0.000002 -44.370110 0.345938 0.153719 -0.000000 -0.000000 0.000000 -44.423679 -3.043532 -0.076700 0.000000 -0.000002 -0.000006 -8.728667 10.710559 -0.000009 -0.000000 -0.000000 -0.000001 -0.000679 9.278123 0.000000 -0.000000 -0.000000 8.207792 -6.751710 -1.599556 -0.074518 -0.000003 0.000081 -0.000002 -44.370014 0.346960 0.148822 0.000002 0.000000 -0.000001 -44.423664 -3.044403 -0.074314 0.000000 -0.000002 -0.000004 -8.728671 10.710558 0.000007 -0.000000 -0.000000 0.000000 -0.000680 9.278137 -0.000000 0.000000 -0.000001 
